<?xml version="1.0" encoding="utf-8"?>
<!-- Generator: Adobe Illustrator 16.0.0, SVG Export Plug-In . SVG Version: 6.00 Build 0)  -->
<!DOCTYPE svg PUBLIC "-//W3C//DTD SVG 1.1//EN" "http://www.w3.org/Graphics/SVG/1.1/DTD/svg11.dtd">
<svg version="1.1" id="图层_1" xmlns="http://www.w3.org/2000/svg" xmlns:xlink="http://www.w3.org/1999/xlink" x="0px" y="0px"
	 width="32px" height="32px" viewBox="0 0 32 32" enable-background="new 0 0 32 32" xml:space="preserve">
<circle fill="none" stroke="#F8B62D" stroke-width="2" stroke-miterlimit="10" cx="16" cy="16" r="15"/>
<g>
	<path fill="#F8B62D" d="M16.656,16.865v0.938c2.686,0,6.094,0.126,10.219,0.375c0.188,0,0.313,0.032,0.375,0.094
		c0.061,0.126,0.031,0.25-0.094,0.375c-0.314,0.563-0.813,0.75-1.5,0.563c-1.938-0.249-4.938-0.437-9-0.563v4.594
		c-0.314,0.313-0.625,0.313-0.937,0v-4.594c-3.75,0.063-7.188,0.313-10.313,0.75c-0.126,0.063-0.25,0.063-0.375,0
		c-0.063-0.062-0.063-0.155,0-0.281c0.125-0.5,0.375-0.812,0.75-0.938c0.312,0,0.75-0.031,1.313-0.094
		c3.875-0.188,6.75-0.281,8.625-0.281v-0.938c0-0.249,0.154-0.375,0.469-0.375C16.563,16.49,16.717,16.616,16.656,16.865z
		 M10.938,6.553c0.188-0.249,0.375-0.281,0.563-0.094c0.375,0.188,0.436,0.438,0.188,0.75C11.125,7.771,10.563,8.397,10,9.084
		c4.125-0.188,9.06-0.218,14.812-0.094c0.313,0,0.406,0.157,0.281,0.469c-0.063,0.313-0.344,0.438-0.844,0.375
		c-1.188-0.062-3.531-0.094-7.031-0.094v1.313c2.25,0,4.467,0.032,6.656,0.094c0.313,0,0.436,0.126,0.375,0.375
		c-0.063,0.313-0.344,0.469-0.844,0.469c-2.25-0.125-4.313-0.188-6.188-0.188v1.406c3,0,5.25,0.032,6.75,0.094
		c0.248-0.062,0.342,0.063,0.281,0.375c-0.063,0.313-0.344,0.469-0.844,0.469c-2.25-0.125-4.313-0.188-6.188-0.188v1.5
		c3.811,0,6.469,0.032,7.969,0.094c0.313,0,0.406,0.126,0.281,0.375c-0.063,0.375-0.438,0.532-1.125,0.469
		c-5.5-0.249-10.5-0.249-15,0v0.281c0,0.313-0.126,0.469-0.375,0.469c-0.313,0-0.469-0.155-0.469-0.469V10.49
		c-0.188,0.126-0.469,0.344-0.844,0.656c-0.501,0.438-0.876,0.719-1.125,0.844c-0.438,0.25-0.813,0.25-1.125,0
		c-0.25-0.188-0.25-0.343,0-0.469C7.593,10.272,9.438,8.615,10.938,6.553z M12.813,20.334c-1.376,1-2.906,1.813-4.594,2.438
		C7.656,23.085,7.249,22.991,7,22.49c-0.126-0.249-0.032-0.406,0.281-0.469c1.562-0.437,3.218-1.25,4.969-2.438
		c0.248-0.188,0.469-0.155,0.656,0.094C13.094,19.865,13.061,20.085,12.813,20.334z M16.375,9.74c-1.938,0-4.282,0.063-7.032,0.188
		v1.219c1.5-0.062,3.844-0.094,7.032-0.094V9.74z M16.375,11.803c-1.875,0-4.219,0.063-7.032,0.188v1.313
		c1.5-0.062,3.844-0.094,7.032-0.094V11.803z M9.344,15.553c1.5-0.062,3.844-0.094,7.032-0.094v-1.5
		c-1.875,0-4.219,0.063-7.032,0.188V15.553z M18.531,8.428c-0.188-0.062-0.625-0.218-1.313-0.469
		c-1.188-0.375-1.938-0.593-2.25-0.656c-0.314-0.062-0.408-0.249-0.281-0.563c0.188-0.249,0.375-0.312,0.563-0.188
		C16.75,6.928,18,7.335,19,7.771c0.248,0.126,0.281,0.313,0.094,0.563C18.967,8.521,18.779,8.554,18.531,8.428z M19.281,20.521
		c-0.314-0.249-0.375-0.5-0.188-0.75c0.248-0.188,0.5-0.188,0.75,0c1.688,1.063,3.313,1.813,4.875,2.25
		c0.313,0.063,0.375,0.22,0.188,0.469c-0.188,0.563-0.563,0.688-1.125,0.375C22.031,22.115,20.531,21.334,19.281,20.521z"/>
</g>
</svg>
