<?xml version="1.0" encoding="utf-8"?>
<!-- Generator: Adobe Illustrator 16.0.0, SVG Export Plug-In . SVG Version: 6.00 Build 0)  -->
<!DOCTYPE svg PUBLIC "-//W3C//DTD SVG 1.1//EN" "http://www.w3.org/Graphics/SVG/1.1/DTD/svg11.dtd">
<svg version="1.1" id="图层_1" xmlns="http://www.w3.org/2000/svg" xmlns:xlink="http://www.w3.org/1999/xlink" x="0px" y="0px"
	 width="32px" height="32px" viewBox="0 0 32 32" enable-background="new 0 0 32 32" xml:space="preserve">
<path fill="#F8B62D" d="M26.014,24.58H15.508v-6.75h-0.885v6.75H6.925c-3.501,0-6.349-2.639-6.349-5.879
	c0-2.487,1.7-4.681,4.159-5.517c-0.011-0.146-0.017-0.295-0.017-0.44c0-3.244,2.683-6.017,6.231-6.576
	c1.047-3.446,4.272-5.877,7.932-5.877c4.57,0,8.29,3.716,8.29,8.283c0,0.75-0.101,1.487-0.298,2.202
	c2.75,1.34,4.703,4.658,4.701,7.142C31.574,21.467,28.977,24.58,26.014,24.58z M17.508,22.58h8.506c1.682,0,3.563-1.994,3.563-4.664
	c0.002-1.964-1.953-4.933-4.237-5.597l-1.07-0.313l0.427-1.031c0.315-0.768,0.478-1.576,0.478-2.402c0-3.465-2.821-6.283-6.29-6.283
	c-2.964,0-5.553,2.102-6.156,4.996l-0.154,0.74l-0.754,0.053C8.96,8.278,6.72,10.326,6.72,12.743c0,0.313,0.039,0.63,0.114,0.939
	l0.252,1.029l-1.042,0.192c-2.009,0.37-3.468,1.967-3.468,3.797c0,2.139,1.951,3.879,4.35,3.879h5.699v-4.713H8.801l6.129-5.236
	l6.54,5.236h-3.962V22.58z"/>
<path fill="#F8B62D" d="M29.962,31.709H3.572c-0.553,0-1-0.447-1-1s0.447-1,1-1h26.391c0.553,0,1,0.447,1,1
	S30.515,31.709,29.962,31.709z"/>
<path fill="#F8B62D" d="M29.962,28.373H3.572c-0.553,0-1-0.447-1-1s0.447-1,1-1h26.391c0.553,0,1,0.447,1,1
	S30.515,28.373,29.962,28.373z"/>
</svg>
