<?xml version="1.0" encoding="utf-8"?>
<!-- Generator: Adobe Illustrator 16.0.0, SVG Export Plug-In . SVG Version: 6.00 Build 0)  -->
<!DOCTYPE svg PUBLIC "-//W3C//DTD SVG 1.1//EN" "http://www.w3.org/Graphics/SVG/1.1/DTD/svg11.dtd">
<svg version="1.1" id="图层_1" xmlns="http://www.w3.org/2000/svg" xmlns:xlink="http://www.w3.org/1999/xlink" x="0px" y="0px"
	 width="56px" height="56px" viewBox="0 0 56 56" enable-background="new 0 0 56 56" xml:space="preserve">
<g>
	<circle fill="#EFEFEF" cx="28" cy="28" r="28"/>
	<path fill="#F39800" d="M40.326,32.799l-5.381-5.381c-1.033-1.033-2.408-1.602-3.873-1.602c-0.882,0-1.748,0.21-2.525,0.611
		l-5.409-5.409c-0.284-0.283-0.66-0.439-1.061-0.439c-0.4,0-0.777,0.156-1.06,0.439c-0.585,0.585-0.585,1.537,0,2.122l4.895,4.896
		c-0.324,0.095-0.661,0.144-0.999,0.144c-0.926,0-1.794-0.358-2.446-1.01l-5.38-5.38c-0.661-0.663-1.025-1.545-1.025-2.484
		s0.364-1.82,1.026-2.482s1.543-1.027,2.482-1.027s1.821,0.365,2.483,1.027l5.317,5.304l0.042,0.063l0.408,0.339l1.382-1.386
		l-5.735-5.734c-1.039-1.04-2.423-1.612-3.897-1.612c-1.474,0-2.858,0.572-3.897,1.611c-1.04,1.039-1.612,2.423-1.612,3.896
		c0,1.474,0.572,2.858,1.612,3.897l5.38,5.38c1.033,1.032,2.408,1.603,3.873,1.603c0.882,0,1.747-0.21,2.526-0.609l5.408,5.408
		c0.284,0.282,0.661,0.438,1.063,0.438c0.4,0,0.776-0.156,1.061-0.438c0.284-0.283,0.439-0.66,0.439-1.062s-0.156-0.776-0.439-1.062
		l-4.896-4.896c0.324-0.095,0.662-0.144,1-0.144c0.926,0,1.795,0.359,2.445,1.01l5.381,5.381c1.368,1.367,1.368,3.596,0,4.964
		c-0.662,0.662-1.543,1.026-2.482,1.026c-0.938,0-1.82-0.364-2.481-1.025l-5.737-5.736l-1.412,1.418l5.736,5.733
		c1.037,1.039,2.42,1.61,3.895,1.61c1.474,0,2.857-0.572,3.898-1.612c1.038-1.039,1.61-2.423,1.61-3.896
		C41.938,35.222,41.365,33.838,40.326,32.799z"/>
</g>
</svg>
