<?xml version="1.0" encoding="utf-8"?>
<!-- Generator: Adobe Illustrator 16.0.0, SVG Export Plug-In . SVG Version: 6.00 Build 0)  -->
<!DOCTYPE svg PUBLIC "-//W3C//DTD SVG 1.1//EN" "http://www.w3.org/Graphics/SVG/1.1/DTD/svg11.dtd">
<svg version="1.1" id="图层_2" xmlns="http://www.w3.org/2000/svg" xmlns:xlink="http://www.w3.org/1999/xlink" x="0px" y="0px"
	 width="32px" height="32px" viewBox="0 0 32 32" enable-background="new 0 0 32 32" xml:space="preserve">
<g>
	<path fill="#FBB03B" d="M29.649,3.163h-7.444c-0.041-1.068-0.922-1.924-1.999-1.924h-8.369c-1.077,0-1.958,0.856-1.999,1.924H2.204
		c-0.551,0-1,0.449-1,1s0.449,1,1,1h2.56v24.598c0,0.552,0.449,1,1,1H26.09c0.552,0,1-0.448,1-1V5.163h2.56c0.552,0,1-0.449,1-1
		S30.201,3.163,29.649,3.163z M6.763,28.761V5.272H25.09v23.489H6.763z"/>
	<path fill="#FBB03B" d="M12,7.022c-0.551,0-1,0.449-1,1v18.043c0,0.552,0.449,1,1,1s1-0.448,1-1V8.022
		C13,7.471,12.551,7.022,12,7.022z"/>
	<path fill="#FBB03B" d="M20.26,7.022c-0.552,0-1,0.449-1,1v18.043c0,0.552,0.448,1,1,1s1-0.448,1-1V8.022
		C21.26,7.471,20.812,7.022,20.26,7.022z"/>
</g>
<g>
</g>
<g>
</g>
<g>
</g>
<g>
</g>
<g>
</g>
</svg>
