<?xml version="1.0" encoding="utf-8"?>
<!-- Generator: Adobe Illustrator 16.0.0, SVG Export Plug-In . SVG Version: 6.00 Build 0)  -->
<!DOCTYPE svg PUBLIC "-//W3C//DTD SVG 1.1//EN" "http://www.w3.org/Graphics/SVG/1.1/DTD/svg11.dtd">
<svg version="1.1" id="图层_1" xmlns="http://www.w3.org/2000/svg" xmlns:xlink="http://www.w3.org/1999/xlink" x="0px" y="0px"
	 width="32px" height="32px" viewBox="0 0 32 32" enable-background="new 0 0 32 32" xml:space="preserve">
<g>
	<path fill="#FFFFFF" d="M16,0.5C7.453,0.5,0.5,7.453,0.5,16S7.453,31.5,16,31.5S31.5,24.547,31.5,16C31.5,7.454,24.547,0.5,16,0.5z
		 M16,30.501c-7.995,0-14.5-6.505-14.5-14.5s6.505-14.5,14.5-14.5c7.994,0,14.5,6.505,14.5,14.5S23.996,30.501,16,30.501z"/>
	<path fill="#FFFFFF" d="M16.001,28.854c-0.551,0-1-0.449-1-1V17.001H4.149c-0.551,0-1-0.449-1-1s0.449-1,1-1H15V4.15
		c0-0.551,0.449-1,1-1s1,0.449,1,1v10.851h10.852c0.551,0,1,0.449,1,1s-0.447,1-1,1H17v10.853
		C17,28.404,16.553,28.854,16.001,28.854z"/>
</g>
</svg>
