<?xml version="1.0" encoding="utf-8"?>
<!-- Generator: Adobe Illustrator 16.0.0, SVG Export Plug-In . SVG Version: 6.00 Build 0)  -->
<!DOCTYPE svg PUBLIC "-//W3C//DTD SVG 1.1//EN" "http://www.w3.org/Graphics/SVG/1.1/DTD/svg11.dtd">
<svg version="1.1" id="图层_1" xmlns="http://www.w3.org/2000/svg" xmlns:xlink="http://www.w3.org/1999/xlink" x="0px" y="0px"
	 width="336px" height="308px" viewBox="0 0 336 308" enable-background="new 0 0 336 308" xml:space="preserve">
<g>
	<g>
		<path fill="#B5B5B6" d="M4,207.5c0,0,1.375-0.207,2.75-0.382c1.375-0.192,2.75-0.343,2.75-0.343
			c0.676-0.073,1.284,0.415,1.357,1.092c0.074,0.676-0.415,1.283-1.09,1.357c-0.088,0.01-0.182,0.008-0.267,0
			c0,0-1.375-0.15-2.75-0.343C5.375,208.707,4,208.5,4,208.5c-0.276-0.041-0.466-0.299-0.424-0.576
			C3.609,207.7,3.787,207.532,4,207.5z"/>
		<path fill="#B5B5B6" d="M20.911,205.608l0.951-0.078c1.364-0.112,2.561,0.903,2.673,2.267c0.112,1.364-0.903,2.561-2.268,2.673
			c-0.132,0.011-0.277,0.01-0.405,0l-0.951-0.078c-1.321-0.108-2.304-1.267-2.195-2.588
			C18.813,206.615,19.761,205.701,20.911,205.608z"/>
		<path fill="#B5B5B6" d="M33.273,204.703l0.951-0.06c1.854-0.116,3.451,1.292,3.567,3.146c0.116,1.854-1.292,3.451-3.146,3.567
			c-0.136,0.009-0.289,0.007-0.421,0l-0.951-0.06c-1.821-0.114-3.205-1.684-3.09-3.504
			C30.289,206.112,31.635,204.805,33.273,204.703z"/>
		<path fill="#B5B5B6" d="M45.635,204.072c0,0,2.615-0.115,5.23-0.192c2.615-0.095,5.23-0.154,5.23-0.155
			c2.361-0.054,4.319,1.816,4.373,4.178c0.054,2.361-1.816,4.318-4.177,4.373c-0.06,0.001-0.136,0.001-0.195,0
			c0-0.001-2.615-0.061-5.23-0.155c-2.615-0.077-5.23-0.192-5.23-0.192c-2.169-0.095-3.851-1.931-3.756-4.1
			C41.969,205.779,43.627,204.166,45.635,204.072z"/>
		<path fill="#B5B5B6" d="M67.507,203.523l0.951-0.012c2.479-0.032,4.515,1.952,4.546,4.432c0.032,2.479-1.952,4.514-4.431,4.545
			c-0.031,0.001-0.083,0-0.115,0l-0.951-0.012c-2.473-0.031-4.451-2.061-4.42-4.533C63.118,205.511,65.089,203.557,67.507,203.523z"
			/>
		<path fill="#B5B5B6" d="M79.869,203.611l0.951,0.029c2.408,0.074,4.299,2.086,4.225,4.494c-0.071,2.313-1.944,4.149-4.225,4.225
			l-0.951,0.029c-2.424,0.074-4.449-1.83-4.524-4.254s1.83-4.449,4.254-4.523C79.685,203.608,79.784,203.609,79.869,203.611z"/>
		<path fill="#B5B5B6" d="M92.231,204.202c0,0,2.615,0.168,5.23,0.376c2.615,0.199,5.23,0.399,5.23,0.399
			c1.669,0.128,2.919,1.584,2.792,3.253c-0.115,1.514-1.324,2.682-2.792,2.792c0,0-2.615,0.2-5.23,0.399
			c-2.615,0.208-5.23,0.376-5.23,0.376c-2.098,0.135-3.907-1.456-4.042-3.554c-0.135-2.098,1.457-3.908,3.554-4.042
			C91.9,204.191,92.078,204.193,92.231,204.202z"/>
		<path fill="#B5B5B6" d="M114.103,205.805l0.951,0.063c1.178,0.078,2.07,1.095,1.993,2.272c-0.071,1.083-0.938,1.925-1.993,1.993
			l-0.951,0.063c-1.212,0.079-2.259-0.84-2.339-2.052c-0.079-1.212,0.839-2.259,2.051-2.339
			C113.908,205.799,114.012,205.8,114.103,205.805z"/>
		<path fill="#B5B5B6" d="M126.464,206.386l0.951,0.021c0.879,0.021,1.577,0.749,1.557,1.629c-0.02,0.854-0.711,1.536-1.557,1.557
			l-0.951,0.021c-0.891,0.021-1.63-0.687-1.65-1.577c-0.02-0.893,0.686-1.631,1.578-1.651
			C126.414,206.385,126.442,206.386,126.464,206.386z"/>
		<path fill="#B5B5B6" d="M138.827,206.478c0,0,2.615-0.041,5.23-0.081c2.615-0.078,5.23-0.155,5.23-0.155
			c0.972-0.028,1.782,0.735,1.811,1.706c0.029,0.973-0.735,1.783-1.707,1.812c-0.033,0.001-0.072,0.001-0.104,0
			c0,0-2.615-0.077-5.23-0.155c-2.615-0.04-5.23-0.081-5.23-0.081c-0.841-0.013-1.512-0.705-1.499-1.546
			C137.34,207.152,138.008,206.491,138.827,206.478z"/>
		<path fill="#B5B5B6" d="M160.698,205.688l0.951-0.061c1.311-0.084,2.441,0.911,2.524,2.222c0.084,1.311-0.911,2.44-2.221,2.524
			c-0.098,0.006-0.208,0.006-0.303,0l-0.951-0.061c-1.277-0.082-2.246-1.184-2.165-2.46
			C158.608,206.675,159.551,205.76,160.698,205.688z"/>
		<path fill="#B5B5B6" d="M173.061,204.886l0.951-0.063c1.754-0.115,3.271,1.213,3.387,2.968c0.115,1.755-1.213,3.271-2.968,3.388
			c-0.136,0.009-0.288,0.008-0.419,0l-0.951-0.063c-1.721-0.113-3.023-1.601-2.909-3.32
			C170.256,206.213,171.521,204.985,173.061,204.886z"/>
		<path fill="#B5B5B6" d="M185.422,204.109c0,0,2.615-0.137,5.23-0.272c2.615-0.104,5.23-0.207,5.23-0.207
			c2.413-0.096,4.447,1.784,4.543,4.197c0.095,2.413-1.784,4.447-4.197,4.543c-0.113,0.005-0.235,0.004-0.346,0
			c0,0-2.615-0.104-5.23-0.207c-2.615-0.136-5.23-0.272-5.23-0.272c-2.148-0.112-3.799-1.945-3.687-4.094
			C181.84,205.791,183.462,204.219,185.422,204.109z"/>
		<path fill="#B5B5B6" d="M207.294,203.299l0.95-0.026c2.611-0.072,4.786,1.985,4.858,4.597s-1.985,4.786-4.597,4.858
			c-0.082,0.002-0.18,0.002-0.262,0l-0.95-0.026c-2.597-0.072-4.644-2.234-4.571-4.831
			C202.792,205.365,204.82,203.372,207.294,203.299z"/>
		<path fill="#B5B5B6" d="M219.655,202.969l0.951-0.02c2.79-0.061,5.101,2.152,5.16,4.941c0.061,2.79-2.152,5.1-4.941,5.16
			c-0.066,0.002-0.152,0.002-0.219,0l-0.951-0.02c-2.778-0.061-4.981-2.361-4.922-5.141
			C214.792,205.189,216.981,203.031,219.655,202.969z"/>
		<path fill="#B5B5B6" d="M232.018,202.702c0,0,2.615-0.027,5.23-0.055c2.615-0.035,5.23-0.019,5.23-0.019
			c2.966,0.018,5.356,2.438,5.339,5.403c-0.018,2.944-2.404,5.32-5.339,5.339c0,0-2.615,0.017-5.23-0.019
			c-2.615-0.027-5.23-0.055-5.23-0.055c-2.926-0.03-5.272-2.428-5.242-5.354C226.806,205.058,229.146,202.734,232.018,202.702z"/>
		<path fill="#B5B5B6" d="M253.89,202.73l0.95,0.014c2.903,0.043,5.222,2.43,5.18,5.332c-0.042,2.849-2.351,5.135-5.18,5.18
			l-0.95,0.014c-2.911,0.042-5.304-2.283-5.347-5.193c-0.042-2.91,2.283-5.303,5.193-5.346
			C253.779,202.73,253.847,202.73,253.89,202.73z"/>
		<path fill="#B5B5B6" d="M266.251,203.03l0.951,0.032c2.727,0.094,4.861,2.38,4.769,5.106c-0.09,2.607-2.201,4.674-4.769,4.769
			l-0.951,0.032c-2.744,0.094-5.046-2.055-5.14-4.8c-0.094-2.744,2.055-5.046,4.8-5.14
			C266.021,203.026,266.143,203.027,266.251,203.03z"/>
		<path fill="#B5B5B6" d="M278.613,203.494c0,0,2.615,0.107,5.23,0.254c2.615,0.137,5.229,0.273,5.229,0.273
			c2.198,0.114,3.887,1.988,3.771,4.186c-0.106,2.052-1.766,3.66-3.771,3.771c0,0-2.614,0.137-5.229,0.273
			c-2.615,0.146-5.23,0.254-5.23,0.254c-2.488,0.104-4.59-1.83-4.692-4.319c-0.104-2.489,1.83-4.59,4.319-4.692
			C278.362,203.488,278.493,203.489,278.613,203.494z"/>
		<path fill="#B5B5B6" d="M300.484,204.715l0.951,0.063c1.779,0.118,3.126,1.656,3.008,3.436c-0.108,1.635-1.416,2.904-3.008,3.008
			l-0.951,0.063c-1.813,0.12-3.382-1.253-3.502-3.067c-0.121-1.813,1.253-3.382,3.066-3.503
			C300.189,204.706,300.348,204.707,300.484,204.715z"/>
		<path fill="#B5B5B6" d="M312.847,205.648l0.951,0.076c1.257,0.1,2.194,1.201,2.094,2.458c-0.091,1.134-0.995,2.007-2.094,2.093
			l-0.951,0.076c-1.299,0.104-2.437-0.863-2.54-2.163c-0.104-1.299,0.864-2.437,2.163-2.54
			C312.593,205.639,312.728,205.639,312.847,205.648z"/>
		<path fill="#B5B5B6" d="M325.209,206.845c0,0,1.375,0.142,2.75,0.313c1.375,0.171,2.75,0.342,2.75,0.342
			c0.276,0.034,0.473,0.286,0.438,0.563c-0.028,0.233-0.214,0.41-0.438,0.438c0,0-1.375,0.171-2.75,0.342
			c-1.375,0.172-2.75,0.313-2.75,0.313c-0.639,0.065-1.209-0.397-1.274-1.036s0.398-1.209,1.036-1.274
			C325.05,206.836,325.133,206.838,325.209,206.845z"/>
	</g>
</g>
<circle fill="#DCDDDD" cx="49.948" cy="109.882" r="2.75"/>
<circle fill="#DCDDDD" cx="80.674" cy="233" r="2.75"/>
<circle fill="#DCDDDD" cx="34.698" cy="182.706" r="2.75"/>
<circle fill="#DCDDDD" cx="125.25" cy="268" r="2.75"/>
<circle fill="#DCDDDD" cx="187.924" cy="304" r="2.75"/>
<circle fill="#DCDDDD" cx="224.75" cy="265.25" r="2.75"/>
<circle fill="#DCDDDD" cx="254.698" cy="233" r="2.75"/>
<circle fill="#DCDDDD" cx="68.5" cy="86.315" r="1.5"/>
<circle fill="#DCDDDD" cx="102" cy="251.5" r="1.5"/>
<circle fill="#DCDDDD" cx="159" cy="287.5" r="1.5"/>
<circle fill="#DCDDDD" cx="205.75" cy="286" r="1.5"/>
<circle fill="#DCDDDD" cx="237.882" cy="253" r="1.5"/>
<circle fill="#DCDDDD" cx="113.5" cy="89.315" r="1.5"/>
<circle fill="#DCDDDD" cx="146.5" cy="135.011" r="1.5"/>
<circle fill="#DCDDDD" cx="183.174" cy="136.511" r="1.5"/>
<circle fill="#DCDDDD" cx="204.25" cy="96.315" r="1.5"/>
<circle fill="#DCDDDD" cx="216.5" cy="58.75" r="1.5"/>
<circle fill="#DCDDDD" cx="246.818" cy="28.25" r="1.5"/>
<circle fill="#DCDDDD" cx="296.781" cy="38.315" r="1.5"/>
<circle fill="#DCDDDD" cx="315.191" cy="80.815" r="1.5"/>
<circle fill="#DCDDDD" cx="289.926" cy="129.899" r="1.5"/>
<circle fill="#DCDDDD" cx="92" cy="78.065" r="2.75"/>
<circle fill="#DCDDDD" cx="128" cy="119.738" r="2.75"/>
<circle fill="#DCDDDD" cx="173.5" cy="151.851" r="2.75"/>
<circle fill="#DCDDDD" cx="195.674" cy="116.988" r="2.75"/>
<circle fill="#DCDDDD" cx="207" cy="80.815" r="2.75"/>
<circle fill="#DCDDDD" cx="227.5" cy="44" r="2.75"/>
<circle fill="#DCDDDD" cx="272.709" cy="25.5" r="2.75"/>
<circle fill="#DCDDDD" cx="314.941" cy="61.5" r="2.75"/>
<circle fill="#DCDDDD" cx="304.674" cy="100.565" r="2.75"/>
<circle fill="#DCDDDD" cx="275.081" cy="149.101" r="2.75"/>
<g>
	<path fill="#9FA0A0" d="M187.205,103.439c1.438-0.125,2.844-0.188,4.219-0.188c1.187-0.062,2.906-0.094,5.156-0.094
		c2.375,0,4.156,0.032,5.344,0.094c1.374,0,2.938,0.063,4.688,0.188c0.188,0,0.313,0.063,0.375,0.188
		c0,0.063-0.063,0.188-0.188,0.375c-0.188,0.563-0.656,0.75-1.406,0.563c-2.813-0.249-5.751-0.375-8.813-0.375
		c-3.813-0.062-7.031,0.094-9.656,0.469c-0.313,0.126-0.469,0-0.469-0.375C186.58,103.72,186.83,103.439,187.205,103.439z"/>
</g>
<g>
	<path fill="#9FA0A0" d="M36.104,92.721c0.75-0.062,1.468-0.094,2.156-0.094c0.062-0.188,0.125-0.406,0.188-0.656
		c0.062-0.312,0.094-0.53,0.094-0.656c0.5-1.5,1.031-2.813,1.594-3.938c0.125-0.312,0.343-0.406,0.656-0.281
		c0.249,0.126,0.312,0.344,0.188,0.656c-0.563,0.938-1.063,2.156-1.5,3.656c-0.063,0.375-0.157,0.75-0.281,1.125h3.281
		c0-0.249-0.032-0.593-0.094-1.031c0-0.5-0.032-0.875-0.094-1.125c-0.063-0.375,0.031-0.563,0.281-0.563
		c0.312-0.125,0.5,0,0.563,0.375c0.249,2.188,0.249,4.094,0,5.719c-0.188,1.438-0.75,2.625-1.688,3.563
		c0.188,0.126,0.469,0.281,0.844,0.469c0.624,0.375,1.093,0.656,1.406,0.844c0.375,0.188,0.437,0.407,0.188,0.656
		c-0.25,0.25-0.563,0.281-0.938,0.094c-0.313-0.249-0.75-0.563-1.313-0.938c-0.375-0.249-0.656-0.437-0.844-0.563
		c-1,0.75-2.344,1.375-4.031,1.875c-0.563,0.188-0.97,0.094-1.219-0.281c-0.188-0.188-0.157-0.343,0.094-0.469
		c1.749-0.249,3.218-0.812,4.406-1.688c-1.313-1.187-2.001-2.438-2.063-3.75c0-0.75,0.031-1.5,0.094-2.25
		c-0.938,0.063-1.75,0.157-2.438,0.281c-0.25-0.062-0.344-0.188-0.281-0.375C35.479,92.941,35.729,92.721,36.104,92.721z
		 M38.823,95.627c0,1.251,0.624,2.344,1.875,3.281c0.999-0.938,1.562-1.969,1.688-3.094c0.062-0.938,0.094-1.781,0.094-2.531
		c-0.063,0.063-0.126,0.063-0.188,0h-0.094c-0.313,0.063-0.844,0.094-1.594,0.094c-0.688,0.063-1.219,0.094-1.594,0.094
		C38.885,94.221,38.823,94.94,38.823,95.627z M50.354,91.127c0.125,0.126,0.218,0.281,0.281,0.469
		c1.625-0.875,2.906-1.688,3.844-2.438c0.249-0.188,0.343-0.343,0.281-0.469c0-0.125-0.157-0.218-0.469-0.281
		c-3.563-0.249-6.407-0.188-8.531,0.188c-0.126,0.063-0.22,0.063-0.281,0c-0.063-0.125-0.063-0.249,0-0.375
		c0.125-0.375,0.343-0.563,0.656-0.563c2.187-0.249,4.906-0.281,8.156-0.094c0.875,0.063,1.406,0.281,1.594,0.656
		c0.188,0.438,0,0.907-0.563,1.406c-1.626,1.188-3,2.063-4.125,2.625c0.375,0.75,0.75,1.563,1.125,2.438
		c1.688,0,3.593,0.063,5.719,0.188c0.125,0,0.218,0.032,0.281,0.094c0,0.126-0.032,0.22-0.094,0.281
		c-0.313,0.438-0.782,0.625-1.406,0.563c-1.063-0.188-2.5-0.281-4.313-0.281c0.375,1.125,0.563,2.25,0.563,3.375
		c-0.126,2.875-1.219,4.375-3.281,4.5c-1.251-0.063-2.344-0.437-3.281-1.125c-0.188-0.062-0.25-0.281-0.188-0.656
		c0.125-0.375,0.343-0.437,0.656-0.188c0.812,0.688,1.749,1.094,2.813,1.219c1.437-0.062,2.218-1.28,2.344-3.656
		c0-1.187-0.188-2.344-0.563-3.469c-2.938,0-5.282,0.126-7.031,0.375c-0.25,0-0.344-0.094-0.281-0.281
		c0.125-0.563,0.375-0.812,0.75-0.75c1.187-0.125,3.281-0.188,6.281-0.188c-0.438-1.187-1-2.25-1.688-3.188
		c-0.126-0.249-0.063-0.437,0.188-0.563C49.979,90.815,50.167,90.878,50.354,91.127z"/>
</g>
<g>
	<path fill="#9FA0A0" d="M86.955,65.846c-0.188-0.188-0.22-0.343-0.094-0.469c0.188-0.312,0.437-0.406,0.75-0.281
		c1.5,1.313,3.062,2.531,4.688,3.656c1.5-1.625,2.625-3.687,3.375-6.188c-1.251,0-2.407,0-3.469,0c-3.375,0-6.188,0.126-8.438,0.375
		c-0.25,0.063-0.407,0.063-0.469,0c-0.063-0.125-0.063-0.249,0-0.375c0.249-0.5,0.624-0.75,1.125-0.75
		c1.625-0.062,4.156-0.094,7.594-0.094h0.656c-0.313-1.062-0.625-1.937-0.938-2.625c-0.063-0.312,0-0.5,0.188-0.563
		c0.312-0.188,0.53-0.125,0.656,0.188c0.5,1.125,0.844,2.125,1.031,3c4.374,0,7.25,0.032,8.625,0.094h0.094
		c0.375,0.063,0.5,0.25,0.375,0.563c0,0.313-0.281,0.469-0.844,0.469c-0.876-0.062-2.625-0.155-5.25-0.281
		c-0.876,2.813-2.063,5.032-3.563,6.656c0.999,0.625,2,1.188,3,1.688c2.499,1.313,5.093,2.282,7.781,2.906
		c0.312,0.063,0.343,0.25,0.094,0.563c-0.375,0.501-0.876,0.595-1.5,0.281c-2.813-0.812-5.313-1.906-7.5-3.281
		c-0.813-0.437-1.657-0.938-2.531-1.5c-0.126,0.126-0.281,0.25-0.469,0.375c-2.438,1.938-5.531,3.126-9.281,3.563
		c-0.688,0.126-1.094-0.062-1.219-0.563c-0.126-0.312,0-0.469,0.375-0.469c4.125-0.249,7.406-1.406,9.844-3.469
		C90.392,68.503,88.83,67.346,86.955,65.846z"/>
</g>
<g>
	<path fill="#9FA0A0" d="M118.08,109.72c3.437-0.188,6.812-0.281,10.125-0.281v-1.5c-1.375,0-2.938,0.032-4.688,0.094
		c-0.876,0.063-1.345-0.125-1.406-0.563c-0.063-1.313-0.063-2.438,0-3.375c0.062-0.75,0.343-1.062,0.844-0.938
		c4.374-0.188,8.187-0.188,11.438,0c0.563,0,0.875,0.281,0.938,0.844c0.188,0.938,0.188,2.095,0,3.469
		c0,0.438-0.469,0.625-1.406,0.563c-1.375-0.062-3-0.094-4.875-0.094v1.5c3.312,0,6.844,0.094,10.594,0.281
		c0.188,0.063,0.312,0.126,0.375,0.188c0,0.126-0.063,0.25-0.188,0.375c-0.25,0.313-0.782,0.438-1.594,0.375
		c-2.938-0.312-6-0.469-9.188-0.469v3.094c-0.25,0.312-0.532,0.312-0.844,0v-3.094c-2.938,0-6.407,0.188-10.406,0.563
		c-0.188,0.063-0.313,0.063-0.375,0c-0.126-0.062-0.157-0.188-0.094-0.375C117.455,109.877,117.705,109.659,118.08,109.72z
		 M131.674,99.126c0.188-0.188,0.375-0.218,0.563-0.094c0.249,0.188,0.312,0.375,0.188,0.563c-0.25,0.313-0.782,0.813-1.594,1.5
		c1.25-0.062,3.062-0.062,5.438,0c0.999,0,1.749,0,2.25,0c0.375,0,0.5,0.094,0.375,0.281c-0.188,0.438-0.501,0.625-0.938,0.563
		c-2.938-0.125-6.438-0.155-10.5-0.094c-3.688,0-6.438,0.094-8.25,0.281c-0.25,0-0.407-0.031-0.469-0.094
		c-0.063-0.062-0.032-0.155,0.094-0.281c0.125-0.312,0.375-0.5,0.75-0.563c-0.063,0-0.032,0,0.094,0
		c1.812-0.062,5.093-0.094,9.844-0.094c0-0.125,0.062-0.218,0.188-0.281c0.188-0.125,0.53-0.406,1.031-0.844
		C131.236,99.534,131.548,99.252,131.674,99.126z M121.924,98.095c5.75-0.188,10.343-0.188,13.781,0
		c0.312,0,0.437,0.126,0.375,0.375c-0.188,0.438-0.501,0.595-0.938,0.469c-1.626-0.125-4.031-0.188-7.219-0.188
		c-3.063,0-5.219,0.094-6.469,0.281c-0.126,0.063-0.22,0.063-0.281,0c-0.063-0.062-0.063-0.155,0-0.281
		C121.235,98.315,121.486,98.095,121.924,98.095z M123.799,103.908c-0.438,0-0.719,0.313-0.844,0.938v0.094
		c-0.063,0.063-0.094,0.126-0.094,0.188c3.875-0.125,7.781-0.125,11.719,0v-0.375c0-0.563-0.313-0.844-0.938-0.844
		C130.517,103.783,127.235,103.783,123.799,103.908z M134.58,105.876c-3.938-0.125-7.813-0.125-11.625,0c0,0.063,0,0.157,0,0.281
		c-0.063,0.876,0.281,1.219,1.031,1.031c3.062-0.125,6.312-0.125,9.75,0c0.5,0.063,0.781-0.281,0.844-1.031V105.876z
		 M124.455,99.689c-0.126-0.125-0.126-0.281,0-0.469c0.249-0.249,0.469-0.281,0.656-0.094c0.312,0.188,0.624,0.469,0.938,0.844
		c0.125,0.126,0.218,0.22,0.281,0.281c-0.063,0.501-0.313,0.656-0.75,0.469C125.205,100.345,124.83,100.002,124.455,99.689z
		 M127.174,96.689c-0.188-0.188-0.22-0.375-0.094-0.563c0.249-0.249,0.469-0.281,0.656-0.094c0.125,0.126,0.312,0.281,0.563,0.469
		c0.375,0.375,0.624,0.625,0.75,0.75c0.125,0.188,0.094,0.344-0.094,0.469c-0.188,0.126-0.375,0.126-0.563,0
		C128.079,97.408,127.673,97.064,127.174,96.689z"/>
</g>
<g>
	<path fill="#9FA0A0" d="M198.299,60.784c7.313-0.437,13.906-0.437,19.781,0c0.125,0,0.188,0.032,0.188,0.094
		c0.062,0.063,0.031,0.157-0.094,0.281c-0.25,0.563-0.719,0.782-1.406,0.656c-4-0.312-7.063-0.469-9.188-0.469v13.969
		c-0.313,0.312-0.625,0.312-0.938,0V61.346c-4.251,0.126-7.188,0.375-8.813,0.75c-0.438,0.126-0.625-0.031-0.563-0.469
		C197.455,61.128,197.798,60.847,198.299,60.784z M215.08,69.502c-2.001-1.562-3.876-2.813-5.625-3.75
		c-0.438-0.125-0.531-0.312-0.281-0.563c0.188-0.312,0.437-0.375,0.75-0.188c2,1,3.938,2.219,5.813,3.656
		c0.249,0.188,0.249,0.438,0,0.75C215.549,69.659,215.329,69.69,215.08,69.502z"/>
</g>
<g>
	<path fill="#9FA0A0" d="M219.781,34.377c-0.938,1.063-1.907,1.907-2.906,2.531c-0.313,0.313-0.688,0.281-1.125-0.094
		c-0.126-0.125-0.156-0.188-0.094-0.188l0.188-0.188c1.25-0.563,2.375-1.437,3.375-2.625c0.188-0.249,0.406-0.281,0.656-0.094
		C220,33.909,219.969,34.128,219.781,34.377z M216.688,24.815c2.813-0.188,6-0.218,9.563-0.094h0.094
		c0.313,0.063,0.406,0.188,0.281,0.375c-0.063,0.438-0.344,0.656-0.844,0.656c-3.126-0.375-6.281-0.375-9.469,0
		c-0.25,0.063-0.375-0.031-0.375-0.281C216.063,24.972,216.313,24.753,216.688,24.815z M217.531,31.659
		c-0.063-1.25-0.063-2.375,0-3.375c-0.063-0.687,0.188-0.999,0.75-0.938c2.063-0.188,4.156-0.188,6.281,0
		c0.563-0.062,0.812,0.22,0.75,0.844c0.125,1.188,0.125,2.313,0,3.375c0,0.375-0.25,0.595-0.75,0.656
		c-0.438-0.062-1.375-0.094-2.813-0.094v6.188c0,0.188-0.156,0.281-0.469,0.281c-0.25,0-0.375-0.094-0.375-0.281v-6.188
		c-1.313,0-2.188,0.032-2.625,0.094C217.78,32.221,217.531,32.034,217.531,31.659z M218.938,31.377
		c0.437-0.062,1.156-0.094,2.156-0.094c1.374,0,2.312,0.032,2.813,0.094c0.375,0,0.563-0.218,0.563-0.656
		c0.125-0.687,0.125-1.374,0-2.063c0-0.312-0.188-0.5-0.563-0.563c-1.563-0.125-3.22-0.125-4.969,0
		c-0.375,0.063-0.563,0.281-0.563,0.656c-0.063,0.563-0.063,1.251,0,2.063C218.5,31.19,218.688,31.377,218.938,31.377z
		 M221.75,23.784c-0.438-0.624-1-1.219-1.688-1.781c-0.25-0.249-0.25-0.469,0-0.656c0.188-0.188,0.406-0.155,0.656,0.094
		c0.375,0.188,0.969,0.782,1.781,1.781c0.188,0.25,0.155,0.469-0.094,0.656C222.156,24.065,221.938,24.034,221.75,23.784z
		 M222.969,34.19c-0.188-0.188-0.22-0.375-0.094-0.563c0.249-0.125,0.469-0.094,0.656,0.094c0.812,0.813,1.688,1.438,2.625,1.875
		c0.125,0.063,0.188,0.126,0.188,0.188l-0.188,0.188c-0.313,0.313-0.595,0.375-0.844,0.188
		C224.624,35.722,223.844,35.066,222.969,34.19z M227.188,27.065c0.563-0.062,1.625-0.094,3.188-0.094
		c0.125-1.5,0.155-3.125,0.094-4.875c0-0.375,0.155-0.563,0.469-0.563c0.249,0,0.375,0.188,0.375,0.563
		c0,1.875-0.032,3.469-0.094,4.781c0.812,0,2.03,0.032,3.656,0.094c1.063,0,1.813,0,2.25,0h0.094
		c0.313,0.063,0.406,0.188,0.281,0.375c-0.063,0.501-0.344,0.719-0.844,0.656c-1.813-0.188-3.625-0.249-5.438-0.188
		c-0.25,4.938-1.938,8.438-5.063,10.5c-0.438,0.125-0.876,0.062-1.313-0.188c-0.188-0.188-0.156-0.343,0.094-0.469
		c3.188-1.812,5-5.093,5.438-9.844c-1.251,0-2.438,0.063-3.563,0.188c-0.126,0.063-0.22,0.063-0.281,0
		c-0.063-0.062-0.063-0.155,0-0.281C226.593,27.285,226.813,27.065,227.188,27.065z M231.875,29.596
		c0.062-0.375,0.249-0.563,0.563-0.563c0.249,0.126,0.375,0.375,0.375,0.75c-0.188,1.688-0.281,3.188-0.281,4.5
		c0.062,1.75,0.688,2.594,1.875,2.531c1.562,0.063,2.719-0.094,3.469-0.469c0.375-0.125,0.563-0.031,0.563,0.281
		c-0.063,0.563-0.344,0.876-0.844,0.938c-0.938,0.25-2.001,0.313-3.188,0.188c-2.001-0.062-2.906-1.187-2.719-3.375
		C231.688,32.253,231.749,30.66,231.875,29.596z M234.969,25.377c-0.75-0.687-1.438-1.25-2.063-1.688
		c-0.313-0.125-0.344-0.343-0.094-0.656c0.125-0.188,0.313-0.188,0.563,0c1.125,0.75,1.843,1.282,2.156,1.594
		c0.188,0.188,0.188,0.407,0,0.656C235.344,25.534,235.156,25.565,234.969,25.377z"/>
</g>
<g>
	<path fill="#9FA0A0" d="M263.394,5.596c3.188-0.188,6.343-0.281,9.469-0.281c-0.063-0.125-0.22-0.343-0.469-0.656
		c-0.188-0.249-0.345-0.437-0.469-0.563c-0.251-0.188-0.251-0.375,0-0.563c0.249-0.188,0.499-0.155,0.75,0.094
		c0.437,0.438,0.844,1,1.219,1.688c2.625,0,6,0.126,10.125,0.375c0.188,0,0.281,0.032,0.281,0.094c0.062,0,0.062,0.063,0,0.188
		c-0.126,0.563-0.469,0.782-1.031,0.656c-3.251-0.312-6.501-0.5-9.75-0.563c-4.751,0.063-8.25,0.25-10.5,0.563
		c-0.188,0.126-0.313,0-0.375-0.375C262.768,5.816,263.019,5.596,263.394,5.596z M273.706,12.065
		c-0.126,0.126-0.345,0.344-0.656,0.656c-0.251,0.313-0.469,0.563-0.656,0.75c3.687,0,6.469,0.063,8.344,0.188
		c0.75,0,1.093,0.344,1.031,1.031c0,2.376,0.062,4.157,0.188,5.344c0,0.188-0.157,0.312-0.469,0.375
		c-0.313,0-0.469-0.094-0.469-0.281c-0.126-2.25-0.188-3.812-0.188-4.688c0.124-0.624-0.094-0.968-0.656-1.031
		c-0.501-0.062-3.313-0.094-8.438-0.094c-0.251,0.313-0.626,0.782-1.125,1.406c-0.251,0.313-0.438,0.532-0.563,0.656
		c-0.126,0.188-0.157,0.344-0.094,0.469c0.062,0.063,0.218,0.094,0.469,0.094c2.187,0.126,4.093,0.094,5.719-0.094
		c0.188,0,0.281-0.031,0.281-0.094c0-0.062-0.063-0.155-0.188-0.281c-0.313-0.437-0.75-0.875-1.313-1.313
		c-0.188-0.188-0.188-0.375,0-0.563c0.249-0.125,0.469-0.125,0.656,0c0.124,0.126,0.312,0.313,0.563,0.563
		c0.499,0.501,0.844,0.844,1.031,1.031c0.312,0.375,0.405,0.719,0.281,1.031c-0.063,0.25-0.345,0.407-0.844,0.469
		c-1.688,0.188-3.876,0.22-6.563,0.094c-0.626-0.062-1.031-0.249-1.219-0.563c-0.126-0.375,0.03-0.812,0.469-1.313
		c0.312-0.375,0.75-0.905,1.313-1.594c-0.813,0-1.845,0.032-3.094,0.094c-0.501,0-0.813,0-0.938,0c-0.626,0-0.907,0.313-0.844,0.938
		c0,1.688-0.188,3.188-0.563,4.5c-0.063,0.438-0.345,0.624-0.844,0.563c-0.251,0-0.345-0.063-0.281-0.188
		c0.499-1.437,0.78-3.312,0.844-5.625c-0.063-0.624,0.249-0.968,0.938-1.031c0.249,0,0.78,0,1.594,0
		c1.624-0.062,2.906-0.094,3.844-0.094c0.124-0.125,0.312-0.312,0.563-0.563c0.249-0.249,0.563-0.656,0.938-1.219
		c-1.751,0-3.438,0.063-5.063,0.188c-0.501-0.062-0.75-0.281-0.75-0.656c-0.063-1.313-0.063-2.593,0-3.844
		c0-0.188,0.155-0.312,0.469-0.375c0.249,0.063,0.375,0.188,0.375,0.375c-0.063,1-0.063,2.001,0,3
		c-0.063,0.438,0.155,0.625,0.656,0.563c2.874-0.125,6.155-0.125,9.844,0c0.312,0.063,0.499-0.094,0.563-0.469
		c0-0.999,0-2.093,0-3.281c0.188-0.375,0.469-0.375,0.844,0c0.124,1.313,0.124,2.657,0,4.031c-0.063,0.438-0.345,0.656-0.844,0.656
		c-1.751-0.125-3.438-0.188-5.063-0.188C273.8,11.816,273.768,11.94,273.706,12.065z M269.206,10.284
		c-0.313,0.063-0.563-0.031-0.75-0.281c-0.188-0.188-0.094-0.343,0.281-0.469c0.687-0.125,1.969-0.5,3.844-1.125
		c-0.438-0.188-1.095-0.437-1.969-0.75c-0.375-0.125-0.656-0.218-0.844-0.281c-0.375-0.188-0.501-0.343-0.375-0.469
		c0.124-0.312,0.312-0.406,0.563-0.281c1.249,0.375,2.499,0.813,3.75,1.313c0.999-0.312,2.063-0.781,3.188-1.406
		c0.249-0.125,0.469-0.062,0.656,0.188c0.124,0.188-0.032,0.407-0.469,0.656c-0.563,0.313-1.345,0.656-2.344,1.031
		c0.687,0.25,1.624,0.656,2.813,1.219c0.188,0.063,0.343,0.126,0.469,0.188c0.188,0.126,0.249,0.281,0.188,0.469
		c-0.126,0.25-0.313,0.344-0.563,0.281c-0.438-0.188-1.125-0.5-2.063-0.938c-0.876-0.375-1.532-0.656-1.969-0.844
		C271.799,9.472,270.331,9.972,269.206,10.284z"/>
</g>
<g>
	<path fill="#9FA0A0" d="M302.635,53.534c3-0.999,5.218-1.688,6.656-2.063c0.188-0.062,0.281-0.062,0.281,0
		c0.062,0,0.094,0.094,0.094,0.281c-0.063,0.438-0.313,0.719-0.75,0.844c-2.438,0.625-4.532,1.313-6.281,2.063
		c-0.313,0.126-0.469,0-0.469-0.375C302.228,53.847,302.385,53.597,302.635,53.534z M309.479,42.94
		c-2.001,1.813-3.876,3.625-5.625,5.438c-0.188,0.188-0.25,0.375-0.188,0.563c0.062,0.126,0.249,0.157,0.563,0.094
		c1.313-0.188,2.813-0.5,4.5-0.938c0.313,0,0.469,0.094,0.469,0.281c0,0.375-0.156,0.595-0.469,0.656
		c-1,0.313-2.406,0.595-4.219,0.844c-0.876,0.188-1.469,0.063-1.781-0.375c-0.25-0.5-0.094-1.062,0.469-1.688
		c0.125-0.125,0.343-0.343,0.656-0.656c0.624-0.687,1.125-1.219,1.5-1.594c-1.125-0.375-1.938-0.75-2.438-1.125
		c-0.625-0.624-0.656-1.25-0.094-1.875c0.812-0.875,2.156-2.187,4.031-3.938c0.249-0.188,0.5-0.188,0.75,0
		c0.188,0.188,0.188,0.407,0,0.656c-1.688,1.375-3.032,2.657-4.031,3.844c-0.188,0.188-0.188,0.407,0,0.656
		c0.375,0.375,1.219,0.719,2.531,1.031c0.875-0.875,1.749-1.688,2.625-2.438c0.249-0.249,0.5-0.281,0.75-0.094
		C309.728,42.534,309.728,42.752,309.479,42.94z M311.447,42.752c0.437-0.062,1.156-0.094,2.156-0.094
		c0.938-0.062,1.655-0.094,2.156-0.094c-0.063-1.125-0.063-2.438,0-3.938c0-0.249,0.155-0.375,0.469-0.375
		c0.249,0.063,0.375,0.22,0.375,0.469c0,1.375,0,2.657,0,3.844c1.749-0.062,3.656-0.094,5.719-0.094
		c0.437-0.062,0.656,0.063,0.656,0.375c-0.063,0.438-0.344,0.595-0.844,0.469c-2.188,0-4,0.032-5.438,0.094
		c0,1.063,0.094,2.032,0.281,2.906c3-0.125,5.063-0.188,6.188-0.188c0.375,0,0.5,0.094,0.375,0.281
		c-0.063,0.438-0.344,0.656-0.844,0.656c-1-0.062-2.875-0.031-5.625,0.094c0.313,1.5,0.781,2.688,1.406,3.563
		c1.562-0.75,2.813-1.468,3.75-2.156c0.249-0.188,0.469-0.155,0.656,0.094c0.188,0.25,0.155,0.469-0.094,0.656
		c-0.938,0.75-2.188,1.469-3.75,2.156c1.125,1.313,2.844,2.344,5.156,3.094c0.188,0.063,0.281,0.157,0.281,0.281
		c0,0.063-0.063,0.157-0.188,0.281c-0.375,0.312-0.876,0.375-1.5,0.188c-2.063-0.999-3.595-2.156-4.594-3.469
		c-2.313,1-4.5,1.781-6.563,2.344c-0.563,0.188-0.97,0.063-1.219-0.375c-0.25-0.375-0.188-0.593,0.188-0.656
		c2.375-0.437,4.719-1.125,7.031-2.063c-0.75-1.125-1.251-2.405-1.5-3.844c-1.875,0.063-3.782,0.22-5.719,0.469
		c-0.25,0-0.344-0.094-0.281-0.281c0.125-0.5,0.406-0.75,0.844-0.75c0.688-0.062,1.813-0.125,3.375-0.188
		c0.75-0.062,1.313-0.094,1.688-0.094c-0.063-0.938-0.156-1.937-0.281-3c-2.188,0.126-3.75,0.22-4.688,0.281
		c-0.25,0-0.344-0.155-0.281-0.469C310.791,42.909,311.01,42.752,311.447,42.752z M321.104,41.346c-0.75-0.563-1.5-1.031-2.25-1.406
		c-0.25-0.125-0.344-0.312-0.281-0.563c0.188-0.312,0.437-0.375,0.75-0.188c0.812,0.375,1.594,0.844,2.344,1.406
		c0.188,0.188,0.219,0.407,0.094,0.656C321.572,41.503,321.353,41.534,321.104,41.346z"/>
</g>
<g>
	<path fill="#9FA0A0" d="M295.572,81.69c0,0.25,0,0.844,0,1.781c-0.063,3.063-0.063,5.032,0,5.906
		c-0.126,0.938,0.281,1.251,1.219,0.938c0.062,0,0.155-0.031,0.281-0.094c1.625-0.312,2.75-0.593,3.375-0.844v-9.469
		c0-0.312,0.155-0.469,0.469-0.469c0.313,0,0.469,0.157,0.469,0.469v16.313c-0.313,0.437-0.625,0.437-0.938,0v-5.906
		c-1.063,0.375-2.438,0.688-4.125,0.938c-1.188,0.313-1.75-0.155-1.688-1.406c0-4.374,0.031-7.093,0.094-8.156
		c0-0.249,0.155-0.406,0.469-0.469C295.446,81.284,295.572,81.441,295.572,81.69z M305.697,86.94
		c-0.063-0.249,0.031-0.437,0.281-0.563c0.249-0.062,0.437,0,0.563,0.188c0.688,1.813,1.625,3.375,2.813,4.688
		c1.625-2.063,2.625-4.531,3-7.406c-2.813,0-4.875,0.032-6.188,0.094c-0.563,1.438-1.281,2.719-2.156,3.844
		c-0.25,0.313-0.625,0.375-1.125,0.188c-0.25-0.125-0.281-0.281-0.094-0.469c1.5-1.437,2.719-3.968,3.656-7.594
		c0.062-0.188,0.249-0.281,0.563-0.281c0.249,0.063,0.375,0.25,0.375,0.563c-0.25,1-0.531,1.938-0.844,2.813
		c3.938,0,6.969,0.032,9.094,0.094c0.313,0,0.406,0.126,0.281,0.375c-0.063,0.438-0.313,0.625-0.75,0.563
		c-0.563-0.062-1.157-0.094-1.781-0.094c-0.375,3.063-1.5,5.751-3.375,8.063c1.562,1.5,3.563,2.625,6,3.375
		c0.313,0.063,0.375,0.22,0.188,0.469c-0.438,0.375-0.97,0.469-1.594,0.281c-2.063-0.875-3.782-2.03-5.156-3.469
		c-1.313,1.5-3,2.657-5.063,3.469c-0.75,0.249-1.313,0.157-1.688-0.281c-0.188-0.249-0.126-0.406,0.188-0.469
		c2.25-0.5,4.187-1.655,5.813-3.469C307.446,90.535,306.447,88.878,305.697,86.94z"/>
</g>
<g>
	
		<line fill="none" stroke="#F39800" stroke-width="6" stroke-linecap="round" stroke-miterlimit="10" x1="238.177" y1="109.882" x2="324.518" y2="109.882"/>
	
		<line fill="none" stroke="#F39800" stroke-width="6" stroke-linecap="round" stroke-miterlimit="10" x1="248.487" y1="124.236" x2="320.601" y2="124.236"/>
	<path fill="none" stroke="#F39800" stroke-width="6" stroke-linecap="round" stroke-miterlimit="10" d="M248.487,123.25
		c0,31.617-4.407,57.202-9.854,57.202"/>
	
		<line fill="none" stroke="#F39800" stroke-width="6" stroke-linecap="round" stroke-miterlimit="10" x1="238.177" y1="126.951" x2="238.177" y2="138.848"/>
	
		<line fill="none" stroke="#F39800" stroke-width="6" stroke-linecap="round" stroke-miterlimit="10" x1="238.177" y1="138.848" x2="248.115" y2="138.848"/>
	
		<line fill="none" stroke="#F39800" stroke-width="6" stroke-linecap="round" stroke-miterlimit="10" x1="246.818" y1="155.127" x2="237.882" y2="155.127"/>
	<path fill="none" stroke="#F39800" stroke-width="6" stroke-linecap="round" stroke-miterlimit="10" d="M308.674,117.533
		c0,36.023,9.854,65.173,22.035,65.173"/>
	<path fill="none" stroke="#F39800" stroke-width="6" stroke-linecap="round" stroke-miterlimit="10" d="M324.518,159.173
		c0,11.762-6.178,21.279-13.813,21.279"/>
	
		<line fill="none" stroke="#F39800" stroke-width="6" stroke-linecap="round" stroke-miterlimit="10" x1="256.472" y1="103.315" x2="256.472" y2="123.25"/>
	
		<line fill="none" stroke="#F39800" stroke-width="6" stroke-linecap="round" stroke-miterlimit="10" x1="272.709" y1="103.315" x2="272.709" y2="123.25"/>
	
		<line fill="none" stroke="#F39800" stroke-width="6" stroke-linecap="round" stroke-miterlimit="10" x1="317.691" y1="117.533" x2="317.691" y2="121.942"/>
	<g>
		<path fill="none" stroke="#F39800" stroke-width="3" stroke-linecap="round" stroke-miterlimit="10" d="M262.812,148.067
			c0-7.211,5.517-13.057,12.321-13.057s12.319,5.846,12.319,13.057c0,3.605-1.377,6.869-3.608,9.233"/>
		
			<line fill="none" stroke="#F39800" stroke-width="3" stroke-linecap="round" stroke-miterlimit="10" x1="262.812" y1="166.678" x2="287.889" y2="166.678"/>
		<path fill="none" stroke="#F39800" stroke-width="3" stroke-linecap="round" stroke-miterlimit="10" d="M288.926,150.026
			c4.338,0,7.855,3.728,7.855,8.327c0,4.596-3.518,8.324-7.855,8.324"/>
		<path fill="none" stroke="#F39800" stroke-width="3" stroke-linecap="round" stroke-miterlimit="10" d="M263.882,155.232
			c0,3.647,2.377,6.599,5.314,6.599"/>
		
			<line fill="none" stroke="#F39800" stroke-width="3" stroke-linecap="round" stroke-miterlimit="10" x1="261.331" y1="171.772" x2="288.831" y2="171.772"/>
		
			<line fill="none" stroke="#F39800" stroke-width="3" stroke-linecap="round" stroke-miterlimit="10" x1="261.353" y1="177.106" x2="288.831" y2="177.106"/>
		<path fill="none" stroke="#F39800" stroke-width="3" stroke-linecap="round" stroke-miterlimit="10" d="M265.022,166.622
			c-0.374,0.047-0.755,0.07-1.141,0.07c-5.072,0-9.184-4.113-9.184-9.186c0-4.438,3.147-8.141,7.333-8.996"/>
	</g>
	<path fill="none" stroke="#F39800" stroke-width="6" stroke-linecap="round" stroke-miterlimit="10" d="M237.882,155.127
		c0,9.2-2.313,16.646-5.173,16.646"/>
</g>
<g>
	<path fill="#F8B62D" d="M4.688,171.763c-0.94,0.563-1.969,0.47-3.094-0.281c-0.378-0.374-0.563-0.655-0.563-0.844l0.563-0.563
		c3.749-2.435,6.469-5.625,8.156-9.563c0.563-1.125,1.31-1.406,2.25-0.844c0.936,0.188,0.936,0.94,0,2.25
		C10.125,165.482,7.686,168.766,4.688,171.763z M9.47,150.388c-0.378-6.561-0.281-12.56,0.281-18
		c0.185-2.435,1.31-3.841,3.375-4.219c11.25-0.563,23.528-0.563,36.844,0c2.25,0.189,3.656,1.503,4.219,3.938
		c0.374,6.75,0.374,12.564,0,17.438c-0.563,3.19-2.25,4.688-5.063,4.5c-1.125,0-3.001,0-5.625,0
		c-3.375-0.185-6.188-0.281-8.438-0.281c-9,0-16.128,0.097-21.375,0.281C11.25,154.232,9.843,153.016,9.47,150.388z M12.282,133.231
		c-0.189,1.688-0.281,3.845-0.281,6.469c6.188-0.374,12.375-0.563,18.563-0.563v-8.719c-8.815,0-14.159,0.097-16.031,0.281
		C13.029,130.7,12.282,131.544,12.282,133.231z M14.813,151.231c6.935,0,12.186-0.092,15.75-0.281v-9.281
		c-6.003,0-12.19,0.189-18.563,0.563c0,2.628,0.092,4.781,0.281,6.469C12.282,150.766,13.126,151.609,14.813,151.231z
		 M18.751,159.95c0.185-0.937,0.747-1.499,1.688-1.688c0.747,0.188,1.028,0.751,0.844,1.688c-1.314,5.813-0.563,8.907,2.25,9.281
		c11.435,3.563,24.75,5.532,39.938,5.906c0.563-0.185,0.747,0,0.563,0.563c-0.378,1.688-1.876,2.343-4.5,1.969
		c-12.753-0.563-25.031-2.531-36.844-5.906C18.188,171.016,16.875,167.078,18.751,159.95z M33.657,166.138
		c-0.189,0.94-0.751,1.406-1.688,1.406c-0.751-0.374-1.033-1.028-0.844-1.969c1.31-3.187,2.061-5.718,2.25-7.594
		c0.374-1.125,0.936-1.499,1.688-1.125c0.936-0.185,1.31,0.281,1.125,1.406C35.811,160.328,34.967,162.951,33.657,166.138z
		 M48.845,130.7c-2.439-0.185-7.69-0.281-15.75-0.281v8.719c6.188,0,12.467,0.189,18.844,0.563c0-0.936-0.097-2.25-0.281-3.938
		c0-1.125,0-1.969,0-2.531C51.468,131.544,50.532,130.7,48.845,130.7z M33.095,150.95h1.969c1.688,0,4.311,0.097,7.875,0.281
		c2.813,0,4.781,0,5.906,0c1.688,0.189,2.624-0.655,2.813-2.531c0-0.563,0-1.406,0-2.531c0.185-1.688,0.281-2.997,0.281-3.938
		c-6.376-0.374-12.656-0.563-18.844-0.563V150.95z M46.876,169.513c-0.751,0.751-1.406,0.844-1.969,0.281s-0.563-1.218,0-1.969
		c1.688-2.25,3.278-4.685,4.781-7.313c0.374-0.937,0.936-1.218,1.688-0.844c0.936,0.378,1.125,1.032,0.563,1.969
		C50.625,164.45,48.937,167.078,46.876,169.513z"/>
	<path fill="#F8B62D" d="M73.595,169.794c4.874-2.25,10.969-4.5,18.281-6.75c0.747-0.185,1.125,0,1.125,0.563
		c0,1.125-0.659,1.969-1.969,2.531c-7.128,2.438-13.034,4.688-17.719,6.75c-0.378,0.188-0.659,0.281-0.844,0.281
		c-0.189-0.185-0.281-0.466-0.281-0.844C72,170.826,72.47,169.982,73.595,169.794z M91.313,141.388
		c-3.564,3.375-8.253,8.156-14.063,14.344c-0.751,0.94-1.033,1.595-0.844,1.969c0.185,0.378,0.844,0.47,1.969,0.281
		c4.685-0.374,8.622-1.125,11.813-2.25c1.125,0,1.688,0.281,1.688,0.844c0.185,0.751-0.189,1.313-1.125,1.688
		c-5.625,1.313-9.94,2.065-12.938,2.25c-2.439,0.188-3.938-0.281-4.5-1.406c-0.563-0.937-0.097-2.25,1.406-3.938
		c1.688-2.061,4.03-4.592,7.031-7.594c-3.375-0.747-5.722-1.688-7.031-2.813c-2.25-1.31-2.347-3.094-0.281-5.344
		c3.375-3.749,6.561-6.935,9.563-9.563c0.747-0.563,1.406-0.655,1.969-0.281c0.374,0.94,0.281,1.688-0.281,2.25
		c-2.065,1.688-4.5,4.034-7.313,7.031c-0.94,0.94-1.595,1.595-1.969,1.969c-0.563,0.751-0.378,1.406,0.563,1.969
		c1.499,0.94,3.749,1.876,6.75,2.813c2.435-2.624,4.5-4.685,6.188-6.188c0.747-0.563,1.406-0.563,1.969,0
		C92.623,139.981,92.438,140.641,91.313,141.388z M102.001,127.606c0.185-0.747,0.655-1.028,1.406-0.844
		c0.936,0,1.31,0.563,1.125,1.688c-1.314,3.938-2.813,7.409-4.5,10.406c5.625-0.185,17.622-0.281,36-0.281
		c1.125-0.185,1.591,0.281,1.406,1.406c-0.189,0.94-0.94,1.314-2.25,1.125c-1.125,0-3.094,0-5.906,0
		c-4.5-0.185-7.972-0.281-10.406-0.281v7.875c8.438,0,13.5,0.097,15.188,0.281c1.125-0.185,1.591,0.281,1.406,1.406
		c-0.189,0.751-0.94,1.125-2.25,1.125c-2.25-0.185-7.031-0.281-14.344-0.281v8.156c8.249,0,13.219,0.097,14.906,0.281
		c1.125-0.185,1.591,0.281,1.406,1.406c-0.189,0.751-0.94,1.125-2.25,1.125c-2.25-0.185-6.939-0.281-14.063-0.281v9
		c9.563,0,15.842,0.097,18.844,0.281c0.374,0,0.655,0.097,0.844,0.281c0,0.378-0.097,0.751-0.281,1.125
		c-0.189,1.125-1.125,1.503-2.813,1.125c-11.439-0.563-23.251-0.563-35.438,0v2.813c0,0.563-0.378,0.937-1.125,1.125
		c-0.94-0.188-1.406-0.563-1.406-1.125v-33.188c-0.189,0.189-0.378,0.47-0.563,0.844c-0.94,1.688-2.065,3.283-3.375,4.781
		c-1.125,1.314-2.25,1.595-3.375,0.844c-0.751-0.374-0.94-0.844-0.563-1.406C94.5,144.108,98.626,137.169,102.001,127.606z
		 M116.345,140.825c-2.813,0-6.658,0.097-11.531,0.281c-2.439,0-4.034,0-4.781,0v7.875c1.125,0,3.094,0,5.906,0
		c4.5-0.185,7.967-0.281,10.406-0.281V140.825z M116.345,151.231c-2.628,0-6.376,0.097-11.25,0.281c-2.628,0-4.315,0-5.063,0v8.156
		c6.561,0,11.997-0.093,16.313-0.281V151.231z M101.438,170.919c3.375,0,8.341,0,14.906,0v-9c-2.439,0-6.003,0.097-10.688,0.281
		c-2.813,0-4.689,0-5.625,0v8.719C100.406,170.919,100.876,170.919,101.438,170.919z M120.001,136.325
		c-0.563-0.747-2.813-2.716-6.75-5.906c-0.751-0.563-0.844-1.217-0.281-1.969c0.563-0.563,1.217-0.563,1.969,0
		c2.435,1.876,4.781,3.938,7.031,6.188c0.936,0.563,0.936,1.125,0,1.688C121.218,136.888,120.563,136.888,120.001,136.325z"/>
	<path fill="#F8B62D" d="M148.97,176.263c-0.94,1.31-2.158,1.591-3.656,0.844c-0.189,0-0.281-0.093-0.281-0.281
		c0-0.185,0.092-0.374,0.281-0.563c2.25-2.435,4.03-5.528,5.344-9.281c0.185-0.937,0.747-1.218,1.688-0.844
		c0.936,0.188,1.125,0.94,0.563,2.25C151.404,172.141,150.095,174.764,148.97,176.263z M155.438,159.106
		c-0.189-3.56-0.189-7.313,0-11.25c0.185-2.25,1.688-3.375,4.5-3.375c3.375-0.185,6.75-0.281,10.125-0.281v-17.156
		c0-0.936,0.466-1.406,1.406-1.406c0.937-0.185,1.406,0.281,1.406,1.406v6.75c8.438-0.374,16.405-0.281,23.906,0.281
		c0.937,0,1.218,0.378,0.844,1.125c-0.188,1.125-1.032,1.595-2.531,1.406c-5.625-0.563-13.034-0.655-22.219-0.281v7.875
		c6.188-0.185,12.187-0.092,18,0.281c2.062,0.189,3.375,1.222,3.938,3.094c0.374,3.753,0.374,7.594,0,11.531
		c-0.378,1.876-1.969,2.72-4.781,2.531c-9.751-0.374-19.876-0.374-30.375,0C157.029,161.638,155.623,160.794,155.438,159.106z
		 M158.251,149.544c-0.189,2.25-0.189,4.597,0,7.031c-0.189,1.876,1.028,2.72,3.656,2.531c9-0.374,17.903-0.374,26.719,0
		c2.25,0,3.375-0.937,3.375-2.813c0.374-2.435,0.374-4.781,0-7.031c0-1.31-1.032-2.153-3.094-2.531
		c-10.876-0.374-20.065-0.374-27.563,0C159.279,147.109,158.251,148.045,158.251,149.544z M168.095,176.263
		c-0.189-0.185-0.378-0.466-0.563-0.844c-1.876-3.375-3.283-5.625-4.219-6.75c-0.563-0.937-0.47-1.591,0.281-1.969
		c0.747-0.563,1.406-0.466,1.969,0.281c1.688,2.25,3.375,4.97,5.063,8.156c0.374,0.751,0.093,1.313-0.844,1.688
		C169.031,177.014,168.468,176.825,168.095,176.263z M185.251,175.981c-2.065-3.375-3.753-5.906-5.063-7.594
		c-0.563-1.125-0.47-1.872,0.281-2.25c0.747-0.563,1.406-0.466,1.969,0.281c2.062,2.438,3.841,5.251,5.344,8.438
		c0.374,0.751,0.185,1.313-0.563,1.688C186.279,176.922,185.625,176.732,185.251,175.981z M203.532,176.544
		c-1.313-2.435-3.282-5.437-5.906-9c-0.563-0.937-0.47-1.688,0.281-2.25c0.563-0.185,1.125,0,1.688,0.563
		c2.25,2.438,4.403,5.532,6.469,9.281c0.374,0.751,0.185,1.406-0.563,1.969C204.561,177.291,203.906,177.106,203.532,176.544z"/>
</g>
<g>
</g>
<g>
</g>
<g>
</g>
<g>
</g>
<g>
</g>
<g>
</g>
</svg>
